<?xml version="1.0" standalone="no"?>
<!DOCTYPE svg PUBLIC "-//W3C//DTD SVG 20010904//EN"
 "http://www.w3.org/TR/2001/REC-SVG-20010904/DTD/svg10.dtd">
<svg version="1.0" xmlns="http://www.w3.org/2000/svg"
 width="200.000000pt" height="200.000000pt" viewBox="0 0 200.000000 200.000000"
 preserveAspectRatio="xMidYMid meet">
<metadata>
Created by potrace 1.11, written by Peter Selinger 2001-2013
</metadata>
<g transform="translate(0.000000,200.000000) scale(0.100000,-0.100000)"
fill="#000000" stroke="none">
<path d="M1023 1868 l-32 -33 395 -410 c217 -225 399 -411 403 -413 4 -1 20
11 36 28 l29 30 -95 98 c-96 97 -672 696 -694 720 -8 9 -18 5 -42 -20z"/>
<path d="M557 1418 l-417 -402 35 -35 35 -36 82 81 c46 45 232 224 413 399
182 175 331 321 333 325 1 3 -13 20 -31 38 l-33 32 -417 -402z"/>
<path d="M1015 1700 l-28 -29 76 -83 c42 -46 184 -193 316 -328 l239 -245 31
30 31 31 -316 327 c-173 180 -317 327 -318 327 -1 0 -15 -13 -31 -30z"/>
<path d="M638 1332 l-327 -317 34 -35 35 -34 47 45 c27 25 175 168 331 319
l283 273 -33 34 c-17 18 -34 33 -37 32 -4 0 -153 -143 -333 -317z"/>
<path d="M1012 1527 l-31 -32 234 -241 234 -241 32 33 32 33 -210 218 c-116
120 -222 228 -235 240 l-24 23 -32 -33z"/>
<path d="M779 1305 c-101 -98 -211 -204 -244 -236 l-59 -59 34 -35 34 -35 95
92 c53 51 163 157 244 237 l148 144 -34 35 -34 34 -184 -177z"/>
<path d="M1010 1356 l-34 -36 149 -153 c83 -83 150 -153 151 -154 0 -2 18 12
39 30 l39 34 -155 157 -154 157 -35 -35z"/>
<path d="M803 1158 l-158 -157 30 -31 c16 -16 34 -30 39 -30 6 0 81 67 166
149 l155 149 -37 38 -38 38 -157 -156z"/>
<path d="M1002 1187 l-32 -32 68 -74 67 -73 34 35 34 36 -64 70 c-35 39 -66
71 -70 71 -3 0 -19 -15 -37 -33z"/>
<path d="M890 1074 l-71 -68 35 -35 36 -36 65 65 c36 35 65 69 65 75 0 6 -13
24 -29 39 l-29 28 -72 -68z"/>
<path d="M250 965 l-34 -35 71 -73 c38 -39 218 -225 398 -412 180 -187 331
-341 334 -343 4 -1 21 13 39 31 l32 33 -356 369 c-196 204 -377 391 -403 418
l-47 47 -34 -35z"/>
<path d="M416 961 c-16 -16 -27 -34 -25 -39 5 -13 621 -652 629 -652 3 0 21
13 40 29 l35 29 -85 89 c-458 474 -554 573 -560 573 -3 0 -19 -13 -34 -29z"/>
<path d="M591 957 l-34 -36 233 -240 c129 -133 236 -241 239 -241 10 0 61 54
61 64 0 6 -105 118 -233 249 l-232 239 -34 -35z"/>
<path d="M756 951 l-29 -30 149 -155 c82 -86 151 -156 154 -156 3 0 20 15 37
33 l32 32 -147 153 c-81 84 -152 153 -158 152 -5 0 -23 -13 -38 -29z"/>
<path d="M932 948 l-31 -33 63 -70 64 -70 31 29 c17 17 31 35 31 41 0 6 -28
39 -63 73 l-63 62 -32 -32z"/>
</g>
</svg>
