<?xml version="1.0" standalone="no"?>
<!DOCTYPE svg PUBLIC "-//W3C//DTD SVG 20010904//EN"
 "http://www.w3.org/TR/2001/REC-SVG-20010904/DTD/svg10.dtd">
<svg version="1.0" xmlns="http://www.w3.org/2000/svg"
 width="512.000000pt" height="512.000000pt" viewBox="0 0 512.000000 512.000000"
 preserveAspectRatio="xMidYMid meet">
<metadata>
Created by potrace 1.11, written by Peter Selinger 2001-2013
</metadata>
<g transform="translate(0.000000,512.000000) scale(0.100000,-0.100000)"
fill="#000000" stroke="none">
<path d="M2366 4220 c-119 -14 -233 -38 -313 -66 -40 -15 -73 -27 -73 -28 0
-2 11 -29 24 -62 28 -68 16 -67 174 -25 108 29 234 51 288 51 24 0 24 0 24
-110 l0 -109 -32 -5 c-289 -42 -430 -91 -612 -211 -102 -67 -252 -211 -320
-308 -27 -37 -54 -67 -60 -65 -30 8 -178 93 -183 104 -7 19 115 173 215 271
l84 82 -43 50 c-30 37 -46 48 -56 42 -54 -30 -240 -237 -322 -359 -96 -142
-214 -434 -236 -583 l-7 -47 52 -11 c87 -19 85 -20 100 61 16 90 57 213 100
298 18 36 33 66 35 68 3 4 184 -98 190 -107 2 -5 -4 -27 -15 -49 -65 -134
-100 -322 -100 -535 0 -199 32 -355 107 -525 12 -29 23 -56 23 -60 0 -4 -17
-16 -37 -27 -21 -11 -66 -37 -100 -57 -35 -21 -64 -38 -67 -38 -7 0 -66 130
-94 212 -16 46 -36 116 -43 156 l-14 74 -54 -7 c-95 -12 -93 -7 -57 -146 84
-322 235 -575 485 -814 l62 -59 24 29 c12 17 32 41 44 54 l21 24 -88 86 c-92
91 -215 246 -209 264 2 6 50 37 106 70 90 51 105 57 113 43 43 -77 178 -216
303 -312 152 -117 407 -214 628 -239 l57 -6 0 -130 0 -130 -67 6 c-88 8 -246
40 -319 65 -85 30 -77 36 -114 -82 -8 -26 -7 -27 68 -52 170 -54 289 -71 517
-70 193 1 271 9 410 45 70 18 146 51 142 63 -2 6 -12 35 -22 64 -11 34 -22 52
-30 48 -79 -30 -258 -68 -382 -82 l-63 -7 0 131 0 131 38 5 c106 15 265 50
332 72 220 74 417 218 585 429 26 33 50 60 54 60 9 0 164 -84 189 -104 l23
-17 -57 -79 c-31 -44 -101 -124 -156 -177 l-100 -97 43 -51 c23 -27 46 -50 51
-50 5 0 58 49 116 108 216 218 356 466 432 764 30 115 28 120 -47 133 l-63 12
-6 -36 c-10 -59 -70 -253 -96 -306 -50 -106 -34 -102 -153 -34 -58 34 -105 63
-105 65 0 3 9 22 20 44 34 68 68 166 91 267 18 81 22 128 22 273 0 219 -20
338 -85 503 -17 42 -29 79 -27 80 2 2 46 27 97 55 92 50 92 50 104 29 46 -83
102 -239 128 -358 l12 -55 67 11 c65 10 66 11 63 40 -5 50 -52 214 -83 292
-87 221 -248 455 -429 628 l-63 59 -43 -49 c-24 -28 -44 -53 -44 -57 0 -4 44
-51 98 -105 89 -89 149 -160 196 -235 l17 -26 -97 -55 -96 -55 -78 96 c-235
294 -494 441 -867 493 l-83 12 0 110 0 110 63 -6 c86 -8 258 -43 335 -68 35
-12 65 -19 66 -18 2 2 13 32 24 67 15 46 18 64 9 67 -163 60 -307 85 -517 90
-91 2 -201 0 -244 -5z m101 -496 c-3 -3 -12 -4 -19 -1 -8 3 -5 6 6 6 11 1 17
-2 13 -5z m-87 -33 c-42 -27 -68 -32 -55 -10 7 11 -13 11 -40 -1 -18 -7 -16
-9 12 -15 18 -4 30 -11 27 -16 -8 -14 2 -11 43 14 49 28 170 31 221 5 32 -16
34 -16 54 4 16 16 28 19 55 15 43 -7 62 -23 80 -64 15 -36 17 -74 5 -70 -5 1
-20 -11 -34 -27 -24 -29 -25 -31 -11 -65 23 -55 13 -127 -23 -159 -16 -15 -30
-26 -31 -25 -1 1 -20 -6 -40 -15 -29 -13 -67 -17 -163 -17 -115 0 -129 2 -169
25 -69 39 -86 69 -86 153 0 57 -4 75 -17 85 -10 7 -18 20 -18 28 0 8 -4 14
-10 14 -5 0 -10 7 -10 16 0 9 5 12 12 8 6 -4 8 -3 4 4 -12 20 14 63 46 77 25
11 28 14 13 15 -11 1 0 8 25 16 25 7 50 12 55 10 6 -2 26 3 45 10 56 20 58 16
10 -15z m398 14 c331 -69 636 -295 792 -589 71 -133 130 -356 130 -490 l0 -66
-375 0 c-391 0 -396 1 -359 42 16 17 18 17 30 0 12 -16 13 -15 13 8 0 31 20
152 26 158 2 2 8 -11 13 -29 l9 -34 8 53 c6 43 11 52 24 46 39 -16 159 -16
208 0 87 29 114 76 114 196 -1 183 -97 343 -253 419 -79 39 -173 50 -235 27
-26 -9 -43 -11 -43 -5 0 22 -43 108 -53 106 -6 -1 -14 14 -17 35 -14 78 -55
113 -144 121 -51 5 -56 4 -40 -8 18 -14 18 -14 -3 -15 -27 0 -74 20 -68 30 8
13 149 10 223 -5z m-571 -46 c-55 -32 -61 -156 -10 -194 11 -8 -10 -11 -74
-10 -80 0 -95 -3 -156 -33 -37 -18 -89 -55 -116 -81 -135 -132 -185 -393 -96
-499 45 -53 192 -69 298 -33 l55 19 7 -58 c4 -32 6 -75 5 -96 -3 -57 -2 -59
26 -88 l27 -26 -377 0 -376 0 0 43 c0 81 30 240 65 345 93 279 295 515 555
647 91 47 225 98 167 64z m574 -419 c1 -37 -2 -76 -5 -87 -12 -37 -77 -53
-130 -33 -32 12 -60 54 -51 77 3 10 6 20 6 23 0 10 43 20 63 15 15 -5 17 -4 7
3 -10 8 -5 13 22 23 20 7 33 17 30 23 -4 5 1 7 11 3 10 -4 16 -2 15 6 -1 6 2
23 7 36 l7 25 9 -23 c4 -13 9 -53 9 -91z m-748 93 c-13 -2 -33 -2 -45 0 -13 2
-3 4 22 4 25 0 35 -2 23 -4z m87 -18 c0 -19 -11 -19 -36 0 -18 14 -18 14 9 15
17 0 27 -5 27 -15z m16 -74 c-4 -5 0 -12 6 -14 7 -3 0 -6 -16 -6 -24 -1 -27 1
-16 14 13 16 35 21 26 6z m89 -23 c4 -3 24 -4 45 -1 80 11 117 -48 64 -101
-37 -36 -94 -36 -123 0 -34 43 -21 137 14 102z m719 -94 c3 -8 2 -12 -4 -9 -6
3 -10 10 -10 16 0 14 7 11 14 -7z m-604 -50 c0 -8 -4 -12 -10 -9 -5 3 -10 10
-10 16 0 5 5 9 10 9 6 0 10 -7 10 -16z m145 -15 c-6 -17 -9 -19 -16 -8 -12 19
-11 32 1 24 6 -3 10 -1 10 6 0 7 3 10 6 6 3 -3 3 -15 -1 -28z m115 1 c6 10 15
8 37 -8 17 -12 36 -28 43 -37 7 -8 21 -15 31 -15 16 0 17 4 8 26 -13 37 -5 40
20 8 28 -36 27 -44 -9 -44 -48 0 -128 -20 -141 -36 -14 -18 0 -18 55 -3 21 6
60 14 86 18 48 8 49 7 82 -33 19 -23 37 -49 41 -59 6 -16 5 -16 -16 -2 -35 22
-106 29 -150 13 -40 -13 -52 -35 -17 -30 11 2 20 -2 20 -7 0 -21 41 -51 69
-51 20 0 35 8 49 27 21 29 42 24 42 -9 0 -17 3 -18 14 -8 12 9 17 5 26 -30 9
-34 8 -55 -10 -126 -24 -96 -50 -158 -81 -198 -29 -37 -152 -118 -159 -105 -4
5 -15 7 -24 3 -11 -4 -21 -1 -26 6 -7 11 -11 11 -24 1 -9 -7 -23 -10 -33 -7
-9 4 -19 2 -23 -4 -4 -6 -41 10 -96 43 -97 59 -113 80 -165 227 -27 76 -39
266 -14 220 l13 -25 10 25 c5 14 13 44 17 68 9 55 33 56 58 2 21 -45 37 -44
37 2 0 25 3 29 20 25 11 -3 20 -1 20 3 0 5 -9 12 -20 15 -25 8 -26 47 -1 94
l18 34 43 -56 c23 -31 46 -55 50 -52 4 3 11 26 15 52 9 65 12 67 47 42 23 -17
32 -19 38 -9z m185 -240 c-7 -12 -42 -13 -48 -2 -3 4 8 8 24 9 17 1 27 -2 24
-7z m207 -84 c21 -44 21 -44 2 -76 -22 -38 -59 -68 -91 -74 -29 -6 -20 20 10
28 33 8 77 54 77 79 0 33 -24 62 -44 54 -10 -4 -16 -1 -16 7 0 13 13 23 33 25
4 1 17 -19 29 -43z m-802 -15 c14 -27 13 -28 -12 -27 -19 1 -24 -5 -26 -33 -4
-38 24 -75 73 -97 23 -10 25 -13 10 -14 -43 0 -104 59 -105 103 0 26 27 87 39
87 6 0 15 -9 21 -19z m750 -151 c0 -5 -2 -10 -4 -10 -3 0 -8 5 -11 10 -3 6 -1
10 4 10 6 0 11 -4 11 -10z m-714 -57 c-10 -10 -19 5 -10 18 6 11 8 11 12 0 2
-7 1 -15 -2 -18z m31 -5 c-3 -8 -6 -5 -6 6 -1 11 2 17 5 13 3 -3 4 -12 1 -19z
m43 -94 c0 -8 -4 -14 -10 -14 -5 0 -10 9 -10 21 0 11 5 17 10 14 6 -3 10 -13
10 -21z m-580 -296 l-1 -303 -31 35 c-47 54 -130 187 -166 266 -31 68 -73 201
-86 272 l-5 32 144 0 145 0 0 -302z m470 274 c0 -25 -10 -32 -112 -82 -106
-51 -113 -57 -116 -86 -2 -18 4 -49 12 -69 21 -50 20 -63 -6 -67 -16 -2 -32
-21 -55 -63 -17 -33 -36 -61 -42 -63 -8 -3 -11 67 -11 227 l0 231 165 0 165 0
0 -28z m1060 -182 l0 -210 -36 40 c-36 39 -37 42 -25 79 18 61 14 107 -11 130
-12 12 -72 47 -135 78 -81 41 -113 62 -113 75 0 17 13 18 160 18 l160 0 0
-210z m435 173 c-27 -156 -123 -375 -217 -492 -50 -63 -52 -64 -61 -40 -13 34
-21 315 -12 454 l7 115 144 0 145 0 -6 -37z m-890 -240 c3 -13 11 -20 18 -17
8 3 20 -2 27 -11 11 -13 8 -15 -22 -15 -44 0 -74 -22 -88 -65 -6 -19 -17 -35
-24 -35 -7 0 -21 -9 -31 -20 -19 -21 -7 -28 13 -8 20 20 21 5 1 -72 -10 -41
-19 -91 -19 -110 0 -31 -8 -43 -60 -88 l-60 -53 -10 26 c-6 14 -10 29 -10 32
0 2 -14 35 -30 71 -23 50 -47 83 -98 130 l-67 64 55 -5 c30 -2 63 -8 73 -12
10 -4 17 -3 17 4 0 19 -65 41 -118 41 -84 0 -95 33 -26 81 35 24 48 28 54 19
9 -15 30 48 30 89 l0 25 28 -26 c36 -34 65 -48 97 -48 33 0 122 46 190 99 l50
38 3 -56 c1 -31 4 -66 7 -78z m-115 -640 l0 -73 -115 0 -115 0 -1 33 -1 32 -8
-30 c-6 -23 -8 -12 -9 42 l-1 71 57 19 c56 19 57 19 125 -1 l68 -20 0 -73z
m-264 30 c-3 -21 -6 -51 -6 -67 0 -28 0 -29 -47 -22 -27 3 -82 17 -123 29
l-75 23 110 36 c146 48 149 48 141 1z m419 7 c44 -6 98 -14 120 -18 l40 -7
-45 -17 c-52 -20 -197 -58 -222 -58 -15 0 -18 10 -18 61 0 58 1 61 23 56 12
-3 58 -11 102 -17z"/>
<path d="M2687 3623 c-13 -13 -7 -50 11 -66 23 -21 36 -21 51 -3 26 31 -35 97
-62 69z"/>
<path d="M2216 3601 c-26 -29 -17 -56 19 -56 23 0 30 5 35 25 12 46 -23 66
-54 31z"/>
<path d="M2582 3418 c6 -18 28 -21 28 -4 0 9 -7 16 -16 16 -9 0 -14 -5 -12
-12z"/>
<path d="M2350 3400 c0 -5 7 -10 15 -10 8 0 15 5 15 10 0 6 -7 10 -15 10 -8 0
-15 -4 -15 -10z"/>
<path d="M2473 3341 c3 -11 0 -21 -5 -21 -6 0 -5 -6 2 -15 18 -21 37 -19 43 6
4 15 2 19 -9 15 -10 -4 -14 0 -12 11 2 9 -3 18 -11 21 -10 3 -12 -1 -8 -17z"/>
<path d="M2761 3304 c0 -11 3 -14 6 -6 3 7 2 16 -1 19 -3 4 -6 -2 -5 -13z"/>
<path d="M2211 3204 c0 -11 3 -14 6 -6 3 7 2 16 -1 19 -3 4 -6 -2 -5 -13z"/>
<path d="M2650 2910 c-24 -15 -7 -18 30 -4 31 11 32 13 10 13 -14 0 -32 -3
-40 -9z"/>
<path d="M2385 2820 c4 -6 -7 -10 -25 -10 -34 0 -110 -35 -110 -50 0 -15 46
-23 68 -11 12 6 30 11 41 11 12 0 21 4 21 9 0 5 14 11 30 15 29 5 43 26 18 26
-9 0 -8 4 2 10 11 7 7 10 -18 10 -20 0 -31 -4 -27 -10z m-75 -54 c0 -2 -7 -7
-16 -10 -8 -3 -12 -2 -9 4 6 10 25 14 25 6z"/>
<path d="M2721 2768 c27 -23 81 -23 102 0 15 16 12 17 -54 17 -68 0 -70 0 -48
-17z"/>
<path d="M2527 2733 c-11 -10 -8 -51 3 -58 6 -4 10 8 10 29 0 37 -2 41 -13 29z"/>
<path d="M2820 2735 c0 -8 34 -45 42 -45 16 0 7 30 -11 40 -21 11 -31 13 -31
5z"/>
<path d="M2257 2703 c-9 -9 -9 -33 1 -33 4 0 13 9 20 20 10 16 10 20 -1 20 -8
0 -17 -3 -20 -7z"/>
<path d="M2544 2465 c-18 -13 -18 -14 4 -8 12 3 25 9 28 14 8 14 -10 11 -32
-6z"/>
</g>
</svg>
